<svg width="712" height="712" viewBox="0 0 712 712" fill="none" xmlns="http://www.w3.org/2000/svg">
<circle cx="356" cy="356" r="356" fill="url(#paint0_linear)" fill-opacity="0.56"/>
<circle cx="356" cy="356" r="353.5" stroke="#2C3090" stroke-opacity="0.68" stroke-width="5"/>
<path d="M392 349C392 405.885 375.882 452 356 452C336.118 452 320 405.885 320 349C320 292.115 336.118 306 356 306C375.882 306 392 292.115 392 349Z" fill="#1C22A9" fill-opacity="0.78"/>
<path d="M673 312.644C571.5 389.095 660.866 538 572.5 538C521.5 405.085 381 430.934 381 342.625C381 254.316 479 296.655 567.5 214.207C647 115.271 673 224.335 673 312.644Z" fill="url(#paint1_linear)"/>
<path d="M550.863 556.496C550.863 644.861 543.863 522.496 455.363 470.996C366.863 419.496 381.98 451.97 381.98 363.604C381.98 275.238 381 344.713 455.363 389.496C545.863 443.996 550.863 468.13 550.863 556.496Z" fill="url(#paint2_linear)"/>
<path d="M488.5 217C512.5 207 405.32 280.5 394.5 324C383.68 367.5 376.39 326.5 376.39 305.833C376.39 285.165 464.5 227 488.5 217Z" fill="#4A4FB9" fill-opacity="0.7"/>
<path d="M46 312.644C147.5 389.095 58.1344 538 146.5 538C197.5 405.085 338 430.934 338 342.625C338 254.316 240 296.655 151.5 214.207C72 115.271 46 224.335 46 312.644Z" fill="url(#paint3_linear)"/>
<path d="M168.137 556.496C168.137 644.861 175.137 522.496 263.637 470.996C352.137 419.496 337.02 451.97 337.02 363.604C337.02 275.238 338 344.713 263.637 389.496C173.137 443.996 168.137 468.13 168.137 556.496Z" fill="url(#paint4_linear)"/>
<path d="M230.5 217C206.5 207 313.68 280.5 324.5 324C335.32 367.5 342.61 326.5 342.61 305.833C342.61 285.165 254.5 227 230.5 217Z" fill="#4A4FB9" fill-opacity="0.7"/>
<defs>
<linearGradient id="paint0_linear" x1="356" y1="0" x2="356" y2="712" gradientUnits="userSpaceOnUse">
<stop offset="0.729167" stop-color="#DCE1F0"/>
<stop offset="1" stop-color="#4A6BDF" stop-opacity="0"/>
</linearGradient>
<linearGradient id="paint1_linear" x1="541" y1="152.784" x2="541" y2="538" gradientUnits="userSpaceOnUse">
<stop offset="0.078125" stop-color="#0B1076"/>
<stop offset="0.9999" stop-color="#7276DA" stop-opacity="0.7"/>
<stop offset="1" stop-color="#C4C4C4" stop-opacity="0"/>
</linearGradient>
<linearGradient id="paint2_linear" x1="465.672" y1="300.104" x2="465.672" y2="587.66" gradientUnits="userSpaceOnUse">
<stop offset="0.432292" stop-color="#122799" stop-opacity="0.71"/>
<stop offset="0.9999" stop-color="#8291E1" stop-opacity="0.696972"/>
<stop offset="1" stop-color="white" stop-opacity="0"/>
<stop offset="1" stop-color="#2640CB" stop-opacity="0"/>
<stop offset="1" stop-color="#2843D1" stop-opacity="0"/>
</linearGradient>
<linearGradient id="paint3_linear" x1="178" y1="152.784" x2="178" y2="538" gradientUnits="userSpaceOnUse">
<stop offset="0.078125" stop-color="#0B1076"/>
<stop offset="0.9999" stop-color="#7276DA" stop-opacity="0.7"/>
<stop offset="1" stop-color="#C4C4C4" stop-opacity="0"/>
</linearGradient>
<linearGradient id="paint4_linear" x1="253.328" y1="300.104" x2="253.328" y2="587.66" gradientUnits="userSpaceOnUse">
<stop offset="0.432292" stop-color="#122799" stop-opacity="0.71"/>
<stop offset="0.9999" stop-color="#8291E1" stop-opacity="0.696972"/>
<stop offset="1" stop-color="white" stop-opacity="0"/>
<stop offset="1" stop-color="#2640CB" stop-opacity="0"/>
<stop offset="1" stop-color="#2843D1" stop-opacity="0"/>
</linearGradient>
</defs>
</svg>
