<?xml version="1.0"?>
<svg xmlns="http://www.w3.org/2000/svg" xmlns:xlink="http://www.w3.org/1999/xlink" width="512" height="512" viewBox="0 0 128 128"><defs><linearGradient id="a" x1="95.737" y1="95.737" x2="32.263" y2="32.263" gradientUnits="userSpaceOnUse"><stop offset="0" stop-color="#593db6"/><stop offset="1" stop-color="#d86d6f"/></linearGradient></defs><path d="M70.16,73.476a8.634,8.634,0,0,1,2.288,8.28c-.7,2.487-2.927,5.791-9.594,7.414a19.944,19.944,0,0,1-7.409.086,4.965,4.965,0,0,0-4.3,1.432L19.1,122.737a1.748,1.748,0,0,1-2.474,0l-11.36-11.36a1.748,1.748,0,0,1,0-2.474L16.489,97.676a1.75,1.75,0,0,1,2.474,2.475L8.975,110.14l8.885,8.885L48.673,88.213a8.472,8.472,0,0,1,7.341-2.41,16.667,16.667,0,0,0,6.067-.046c3.864-.942,6.368-2.7,7-4.945a5.183,5.183,0,0,0-1.395-4.865,11.538,11.538,0,0,0-6.05-3.166,8.464,8.464,0,0,1-6.411-6.4,11.544,11.544,0,0,0-3.166-6.059,5.182,5.182,0,0,0-4.868-1.4c-2.243.628-4,3.133-4.958,7.052a16.736,16.736,0,0,0-.034,6.011,8.479,8.479,0,0,1-2.409,7.343L29.526,89.588a1.75,1.75,0,0,1-2.475-2.474L37.312,76.853a4.971,4.971,0,0,0,1.431-4.3,19.953,19.953,0,0,1,.074-7.353c1.636-6.722,4.94-8.952,7.427-9.649a8.631,8.631,0,0,1,8.283,2.291,14.869,14.869,0,0,1,4.114,7.79,4.941,4.941,0,0,0,3.739,3.728A14.865,14.865,0,0,1,70.16,73.476ZM21.987,96.4a1.748,1.748,0,0,0,1.238-.512l2.083-2.084a1.75,1.75,0,0,0-2.476-2.474l-2.083,2.083A1.75,1.75,0,0,0,21.987,96.4Zm100.75-79.78-11.36-11.36a1.749,1.749,0,0,0-2.475,0L76.853,37.313a4.983,4.983,0,0,1-4.3,1.43,19.98,19.98,0,0,0-7.408.087c-6.667,1.623-8.9,4.927-9.594,7.414a8.636,8.636,0,0,0,2.287,8.28,14.872,14.872,0,0,0,7.781,4.115,4.944,4.944,0,0,1,3.739,3.728,14.869,14.869,0,0,0,4.114,7.79,8.817,8.817,0,0,0,6.169,2.577,7.833,7.833,0,0,0,2.115-.286c2.485-.7,5.79-2.927,7.426-9.649a19.974,19.974,0,0,0,.074-7.353,4.975,4.975,0,0,1,1.43-4.3l24.355-24.355a1.75,1.75,0,0,0-2.475-2.474L88.213,48.672A8.48,8.48,0,0,0,85.8,56.015a16.713,16.713,0,0,1-.034,6.011c-.955,3.919-2.715,6.423-4.958,7.052a5.188,5.188,0,0,1-4.868-1.4,11.551,11.551,0,0,1-3.166-6.06,8.464,8.464,0,0,0-6.411-6.4,11.538,11.538,0,0,1-6.05-3.166,5.183,5.183,0,0,1-1.4-4.865c.628-2.243,3.133-4,7-4.945a16.706,16.706,0,0,1,6.066-.046,8.482,8.482,0,0,0,7.342-2.41L110.14,8.975l8.885,8.885L117.6,19.287a1.749,1.749,0,1,0,2.474,2.474l2.664-2.664a1.748,1.748,0,0,0,0-2.474Zm-19.954,8.994-6.166,6.167a1.75,1.75,0,1,0,2.475,2.474l6.166-6.167a1.75,1.75,0,1,0-2.475-2.474Zm-61.437,18.2a1.75,1.75,0,1,0,2.475-2.475l-9.084-9.083a1.749,1.749,0,0,0-2.474,2.474Zm8.516-6.664a1.75,1.75,0,1,0,3.185-1.449l-5.32-11.692a1.75,1.75,0,1,0-3.185,1.449ZM24.016,47.727l11.692,5.32a1.75,1.75,0,1,0,1.449-3.185l-11.692-5.32a1.75,1.75,0,0,0-1.449,3.185ZM86.654,84.179a1.75,1.75,0,0,0-2.474,2.475l9.083,9.083a1.749,1.749,0,0,0,2.474-2.474Zm17.33-3.906-11.692-5.32a1.75,1.75,0,0,0-1.449,3.185l11.692,5.32a1.75,1.75,0,1,0,1.449-3.185ZM78.138,90.842a1.75,1.75,0,0,0-3.186,1.45l5.321,11.692a1.75,1.75,0,0,0,3.186-1.45Z" fill="url(#a)"/></svg>
