<?xml version="1.0" encoding="iso-8859-1"?>
<!-- Generator: Adobe Illustrator 19.0.0, SVG Export Plug-In . SVG Version: 6.00 Build 0)  -->
<svg version="1.1" id="Capa_1" xmlns="http://www.w3.org/2000/svg" xmlns:xlink="http://www.w3.org/1999/xlink" x="0px" y="0px"
	 viewBox="0 0 473.673 473.673" style="enable-background:new 0 0 473.673 473.673;" xml:space="preserve">
<g>
	<path style="fill:#C42126;" d="M236.836,473.673c75.779,0,143.185-35.619,186.534-90.991H298.632
		C282.529,436.36,273.542,473.673,236.836,473.673z"/>
	<path style="fill:#C42126;" d="M222.79,473.265c-0.045,0-0.086-0.007-0.131-0.007C222.704,473.258,222.749,473.265,222.79,473.265z
		"/>
	<path style="fill:#C42126;" d="M298.632,90.991h124.741C380.02,35.627,312.613,0,236.836,0
		C273.542,0,282.529,37.313,298.632,90.991z"/>
	<path style="fill:#C42126;" d="M222.659,0.423c0.045,0,0.086-0.007,0.131-0.007C222.749,0.415,222.704,0.415,222.659,0.423z"/>
</g>
<path style="fill:#FFC40C;" d="M423.376,90.991H298.632c25.175,83.909,25.175,207.793,0,291.69h124.733
	c31.487-40.208,50.308-90.808,50.308-145.843C473.677,181.807,454.855,131.203,423.376,90.991z"/>
<g>
	<path style="fill:#C42126;" d="M236.836,473.673c-4.712,0-9.394-0.138-14.046-0.408
		C227.508,473.527,232.199,473.673,236.836,473.673z"/>
	<path style="fill:#C42126;" d="M222.79,0.415C227.441,0.138,232.124,0,236.836,0C232.199,0,227.508,0.153,222.79,0.415z"/>
</g>
<g>
	<path style="fill:#D32030;" d="M316.053,382.682H50.309c40.623,51.894,102.386,86.44,172.349,90.576
		c0.045,0,0.086,0.007,0.131,0.007c4.652,0.269,9.334,0.408,14.046,0.408C273.542,473.673,299.947,436.36,316.053,382.682z"/>
	<path style="fill:#D32030;" d="M50.309,90.991h265.745C299.947,37.313,273.542,0,236.836,0c-4.712,0-9.394,0.138-14.046,0.415
		c-0.045,0-0.086,0.007-0.131,0.007C152.695,4.555,90.932,39.105,50.309,90.991z"/>
</g>
<path style="fill:#FFD034;" d="M0.001,236.838c0,55.035,18.821,105.635,50.308,145.843h265.745
	c25.175-83.901,25.175-207.786,0-291.69H50.309C18.822,131.203,0.001,181.807,0.001,236.838z"/>
<g>
</g>
<g>
</g>
<g>
</g>
<g>
</g>
<g>
</g>
<g>
</g>
<g>
</g>
<g>
</g>
<g>
</g>
<g>
</g>
<g>
</g>
<g>
</g>
<g>
</g>
<g>
</g>
<g>
</g>
</svg>
