<?xml version="1.0" ?><!DOCTYPE svg  PUBLIC '-//W3C//DTD SVG 1.1//EN'  'http://www.w3.org/Graphics/SVG/1.1/DTD/svg11.dtd'><svg enable-background="new 0 0 150 150" height="150px" id="Layer_1" version="1.1" viewBox="0 0 150 150" width="150px" xml:space="preserve" xmlns="http://www.w3.org/2000/svg" xmlns:xlink="http://www.w3.org/1999/xlink"><g><circle cx="75.005" cy="74.996" fill="#E22E28" opacity="0.1" r="75"/><path d="M75.005-0.004v150c41.42,0,75-33.578,75-75S116.425-0.004,75.005-0.004z" fill="#E22E28" opacity="0.1"/><circle cx="75.005" cy="74.996" fill="#E22E28" r="65.488"/><path d="M75.005,9.508v130.977c36.168,0,65.486-29.32,65.486-65.488S111.173,9.508,75.005,9.508z" fill="#D42B25"/><g><path d="M9.589,72.069c-0.041,0.971-0.072,1.945-0.072,2.927c0,36.168,29.32,65.488,65.488,65.488v-5.854    C39.817,134.631,11.122,106.879,9.589,72.069z" fill="#D42B25"/><path d="M140.419,72.069c-1.533,34.81-30.229,62.562-65.414,62.562v5.854c36.168,0,65.486-29.32,65.486-65.488    C140.491,74.015,140.462,73.04,140.419,72.069z" fill="#C52721"/></g></g><g><g><g><defs><polygon id="SVGID_1_" points="61.372,32.285 58.37,44.845 58.062,44.845 54.914,32.285 50.023,32.285 55.802,51.251       55.802,63.706 60.653,63.706 60.653,50.67 66.302,32.285     "/></defs><use fill="#FFFFFF" overflow="visible" xlink:href="#SVGID_1_"/><clipPath id="SVGID_2_"><use overflow="visible" xlink:href="#SVGID_1_"/></clipPath></g><g><defs><path d="M90.239,40.528V58.12c-0.41,0.507-0.848,0.923-1.328,1.246c-0.489,0.327-0.889,0.489-1.203,0.489      c-0.41,0-0.697-0.121-0.875-0.368c-0.183-0.243-0.275-0.639-0.275-1.192V40.528h-4.305v19.373c0,1.379,0.249,2.415,0.751,3.105      c0.509,0.687,1.259,1.031,2.255,1.031c0.809,0,1.641-0.246,2.504-0.738c0.859-0.492,1.685-1.213,2.477-2.152v2.559h4.311V40.528      H90.239z" id="SVGID_3_"/></defs><use fill="#FFFFFF" overflow="visible" xlink:href="#SVGID_3_"/><clipPath id="SVGID_4_"><use overflow="visible" xlink:href="#SVGID_3_"/></clipPath></g><g><path d="M82.168,89.036c-0.312,0-0.614,0.08-0.912,0.23c-0.3,0.152-0.595,0.384-0.888,0.706v14.443     c0.35,0.377,0.692,0.65,1.021,0.813c0.329,0.165,0.673,0.251,1.036,0.251c0.527,0,0.923-0.159,1.164-0.486     c0.252-0.326,0.376-0.857,0.376-1.601V91.43c0-0.784-0.152-1.375-0.468-1.783C83.192,89.241,82.747,89.036,82.168,89.036z" fill="#FFFFFF"/><path d="M98.01,89.123c-0.687,0-1.178,0.211-1.474,0.629c-0.298,0.42-0.448,1.114-0.448,2.087v2.347h3.806v-2.347     c0-0.973-0.15-1.667-0.449-2.087C99.143,89.334,98.673,89.123,98.01,89.123z" fill="#FFFFFF"/><path d="M109.724,80.268c0-5.599-4.593-10.14-10.258-10.14c-7.68-0.318-15.529-0.47-23.529-0.47     c-0.416,0-0.834,0-1.25,0c-0.421,0-0.834,0-1.256,0c-7.996,0-15.846,0.151-23.533,0.47c-5.66,0-10.248,4.541-10.248,10.14     c-0.344,4.436-0.492,8.869-0.477,13.298c-0.016,4.436,0.133,8.865,0.477,13.31c0,5.592,4.588,10.133,10.248,10.133     c8.084,0.345,16.357,0.486,24.789,0.476c8.43,0.011,16.697-0.131,24.779-0.476c5.665,0,10.258-4.541,10.258-10.133     c0.341-4.444,0.484-8.874,0.476-13.31C110.208,89.137,110.064,84.703,109.724,80.268z M54.548,108.832h-4.854V81.971h-5.021     v-4.564h14.897v4.564h-5.021V108.832z M71.808,108.832h-4.309v-2.562c-0.792,0.944-1.62,1.661-2.474,2.155     c-0.862,0.489-1.698,0.738-2.505,0.738c-0.996,0-1.744-0.345-2.252-1.032c-0.511-0.693-0.756-1.727-0.756-3.106V85.652h4.31     v17.766c0,0.546,0.085,0.945,0.272,1.192c0.178,0.246,0.47,0.37,0.875,0.37c0.311,0,0.712-0.163,1.199-0.49     c0.488-0.323,0.928-0.737,1.33-1.246V85.652h4.309V108.832z M88.401,104.028c0,1.645-0.335,2.907-1.014,3.782     c-0.68,0.878-1.65,1.313-2.93,1.313c-0.841,0-1.589-0.171-2.256-0.513c-0.658-0.341-1.268-0.856-1.834-1.563v1.784h-4.352V77.406     h4.352v10.117c0.584-0.709,1.197-1.245,1.847-1.611c0.654-0.371,1.312-0.554,1.983-0.554c1.36,0,2.407,0.494,3.125,1.482     c0.715,0.991,1.078,2.434,1.078,4.324V104.028z M104.329,97.781h-8.241v4.375c0,1.218,0.136,2.062,0.425,2.534     c0.285,0.472,0.768,0.704,1.452,0.704c0.714,0,1.218-0.198,1.501-0.597c0.286-0.399,0.428-1.275,0.428-2.642v-1.611h4.436v1.742     c0,2.376-0.541,4.165-1.621,5.368c-1.08,1.201-2.695,1.801-4.84,1.801c-1.926,0-3.445-0.638-4.553-1.911     c-1.111-1.275-1.666-3.025-1.666-5.258V91.882c0-2.015,0.607-3.652,1.828-4.917c1.219-1.27,2.789-1.897,4.717-1.897     c1.971,0,3.485,0.585,4.545,1.758c1.062,1.17,1.59,2.855,1.59,5.057V97.781z" fill="#FFFFFF"/></g></g><path d="M70.979,59.757c-0.309-0.349-0.463-0.844-0.463-1.481V45.65c0-0.508,0.165-0.917,0.493-1.228   c0.328-0.306,0.757-0.463,1.282-0.463c0.566,0,1.03,0.157,1.375,0.463c0.352,0.311,0.529,0.72,0.529,1.228v12.625   c0,0.624-0.169,1.111-0.51,1.467c-0.346,0.354-0.811,0.534-1.395,0.534C71.722,60.276,71.286,60.1,70.979,59.757 M67.824,41.534   c-1.162,1.065-1.745,2.496-1.745,4.289l0.006,12.021c0,1.967,0.562,3.535,1.694,4.698c1.126,1.166,2.641,1.749,4.526,1.749   c1.953,0,3.492-0.566,4.611-1.689c1.113-1.133,1.675-2.688,1.675-4.679V45.957c0-1.769-0.571-3.213-1.705-4.332   c-1.139-1.122-2.602-1.686-4.386-1.686C70.544,39.939,68.983,40.476,67.824,41.534" fill="#FFFFFF"/></g></svg>