<?xml version="1.0" ?><!DOCTYPE svg  PUBLIC '-//W3C//DTD SVG 1.1//EN'  'http://www.w3.org/Graphics/SVG/1.1/DTD/svg11.dtd'><svg enable-background="new 0 0 150 150" height="150px" id="Layer_1" version="1.1" viewBox="0 0 150 150" width="150px" xml:space="preserve" xmlns="http://www.w3.org/2000/svg" xmlns:xlink="http://www.w3.org/1999/xlink"><g><circle cx="75.005" cy="75.033" fill="#F15822" opacity="0.1" r="75"/><path d="M75.005,0.033v150c41.42,0,75-33.578,75-75S116.425,0.033,75.005,0.033z" fill="#F15822" opacity="0.1"/><circle cx="75.005" cy="75.033" fill="#F15822" r="65.488"/><path d="M75.005,9.545v130.977c36.168,0,65.488-29.32,65.488-65.488S111.173,9.545,75.005,9.545z" fill="#E05220"/><g><path d="M9.591,72.107c-0.043,0.971-0.074,1.945-0.074,2.926c0,36.168,29.32,65.488,65.488,65.488v-5.854    C39.817,134.668,11.122,106.916,9.591,72.107z" fill="#E05220"/><path d="M140.419,72.107c-1.533,34.809-30.227,62.561-65.414,62.561v5.854c36.168,0,65.488-29.32,65.488-65.488    C140.493,74.053,140.462,73.078,140.419,72.107z" fill="#D24D1D"/></g></g><path d="M79.077,97.529c0.039,0.002,37.362,0.019,37.605,0.019c7.491,0,13.56-6.062,13.56-13.564  c0-7.492-6.068-13.563-13.56-13.563c-1.861,0-3.627,0.371-5.251,1.057c-1.081-12.241-11.33-21.827-23.831-21.827  c-3.062,0-6.049,0.599-8.688,1.621c-1.018,0.398-1.282,0.808-1.3,1.599v43.057C77.631,96.754,78.269,97.451,79.077,97.529  L79.077,97.529z M74.835,52.825c-0.803,0-1.476,0.674-1.492,1.493l-0.604,30.559l0.604,11.098c0.017,0.809,0.689,1.485,1.492,1.485  c0.812,0,1.485-0.677,1.503-1.493v0.012l0.659-11.102l-0.659-30.568C76.32,53.499,75.647,52.825,74.835,52.825L74.835,52.825z   M70.21,97.521c0.759,0,1.385-0.619,1.398-1.394v0.004l0.588-11.254l-0.588-28.02c-0.014-0.767-0.64-1.396-1.398-1.396  c-0.763,0-1.391,0.629-1.404,1.396l-0.521,28.014c0,0.016,0.521,11.26,0.521,11.26C68.819,96.901,69.447,97.521,70.21,97.521  L70.21,97.521z M67.517,84.877l-0.655-23.559c-0.016-0.721-0.592-1.291-1.311-1.291c-0.712,0-1.282,0.57-1.302,1.296l-0.583,23.554  l0.589,11.334c0.014,0.72,0.584,1.284,1.296,1.284c0.719,0,1.295-0.564,1.311-1.298v0.014L67.517,84.877L67.517,84.877z   M60.942,97.479c0.662,0,1.186-0.533,1.203-1.205v0.011l0.721-11.407l-0.721-24.443c-0.018-0.676-0.541-1.202-1.203-1.202  c-0.676,0-1.197,0.526-1.217,1.202l-0.641,24.443l0.641,11.396C59.745,96.945,60.267,97.479,60.942,97.479L60.942,97.479z   M56.354,97.49c0.614,0,1.097-0.484,1.127-1.104v0.006l0.775-11.515l-0.775-25.082c-0.03-0.633-0.513-1.11-1.127-1.11  c-0.603,0-1.092,0.478-1.117,1.11l-0.69,25.076l0.69,11.521C55.263,97.006,55.752,97.49,56.354,97.49L56.354,97.49z M51.81,59.595  c-0.553,0-1.002,0.444-1.027,1.013L50.03,84.871l0.752,11.586c0.025,0.566,0.475,1.014,1.027,1.014c0.548,0,1-0.447,1.027-1.018  v0.004l0.845-11.586l-0.845-24.264C52.81,60.039,52.357,59.595,51.81,59.595L51.81,59.595z M47.29,97.49  c0.505,0,0.916-0.403,0.934-0.918v0.009l0.916-11.71l-0.916-22.399c-0.018-0.512-0.429-0.926-0.934-0.926  c-0.486,0-0.896,0.414-0.922,0.926L45.56,84.871l0.809,11.701C46.394,97.087,46.804,97.49,47.29,97.49L47.29,97.49z M44.637,84.871  L43.657,66.64c-0.027-0.465-0.391-0.821-0.84-0.821c-0.436,0-0.805,0.356-0.819,0.821l-0.866,18.231l0.866,11.779  c0.015,0.457,0.384,0.824,0.819,0.824c0.449,0,0.812-0.367,0.84-0.828v0.004L44.637,84.871L44.637,84.871z M38.384,97.377  c0.398,0,0.713-0.32,0.745-0.73l0,0l1.042-11.786l-1.042-11.2c-0.032-0.416-0.347-0.738-0.745-0.738  c-0.395,0-0.721,0.322-0.736,0.738l-0.922,11.2l0.922,11.786C37.663,97.057,37.989,97.377,38.384,97.377L38.384,97.377z   M33.983,97.179c0.335,0,0.615-0.267,0.643-0.636l0,0l1.108-11.683l-1.108-12.069c-0.027-0.37-0.308-0.644-0.643-0.644  c-0.347,0-0.625,0.273-0.646,0.644L32.364,84.86l0.973,11.683C33.358,96.912,33.637,97.179,33.983,97.179L33.983,97.179z   M30.172,73.106c-0.046-0.312-0.272-0.545-0.561-0.545c-0.287,0-0.524,0.233-0.548,0.545c0,0.003-1.037,11.754-1.037,11.754  l1.037,11.323c0.023,0.313,0.261,0.541,0.548,0.541c0.288,0,0.515-0.228,0.556-0.541l1.169-11.323L30.172,73.106L30.172,73.106z   M21.2,91.311c0.228,0,0.409-0.18,0.442-0.428l0.955-6.027l-0.955-6.13c-0.033-0.249-0.215-0.423-0.442-0.423  c-0.227,0-0.41,0.178-0.437,0.43l-0.807,6.123l0.807,6.027C20.79,91.131,20.974,91.311,21.2,91.311L21.2,91.311z M21.643,90.883  L21.643,90.883L21.643,90.883z M25.278,94.991c0.236,0,0.425-0.181,0.461-0.451l1.238-9.685l-1.238-9.908  c-0.036-0.257-0.225-0.435-0.461-0.435c-0.234,0-0.432,0.183-0.458,0.435c0,0.005-1.081,9.908-1.081,9.908l1.081,9.685  C24.847,94.811,25.044,94.991,25.278,94.991L25.278,94.991z" fill="#FFFFFF"/></svg>