<?xml version="1.0" ?><!DOCTYPE svg  PUBLIC '-//W3C//DTD SVG 1.1//EN'  'http://www.w3.org/Graphics/SVG/1.1/DTD/svg11.dtd'><svg enable-background="new 0 0 150 150" height="150px" id="Layer_1" version="1.1" viewBox="0 0 150 150" width="150px" xml:space="preserve" xmlns="http://www.w3.org/2000/svg" xmlns:xlink="http://www.w3.org/1999/xlink"><g><circle cx="74.996" cy="74.996" fill="#F0536C" opacity="0.1" r="75"/><path d="M74.996-0.004v150c41.421,0,75-33.579,75-75.001C149.996,33.574,116.417-0.004,74.996-0.004z   " fill="#F0536C" opacity="0.1"/><circle cx="74.996" cy="74.996" fill="#F0536C" r="65.488"/><path d="M74.996,9.508v130.976c36.168,0,65.488-29.319,65.488-65.488C140.484,38.828,111.164,9.508,74.996,9.508z" fill="#DF4D65"/><g><path d="M9.582,72.068c-0.043,0.971-0.074,1.945-0.074,2.927c0,36.169,29.32,65.488,65.488,65.488v-5.853    C39.809,134.631,11.114,106.878,9.582,72.068z" fill="#DF4D65"/><path d="M140.41,72.068c-1.532,34.81-30.227,62.562-65.414,62.562v5.853c36.168,0,65.488-29.319,65.488-65.488    C140.484,74.014,140.453,73.039,140.41,72.068z" fill="#D2485F"/></g></g><path d="M59.458,94.641V42.49c0,0,12.856-4.505,23.202-6.401c10.345-1.896,28.146-2.767,28.146-2.767V97.46  c0,0-2.881,10.696-15.813,10.352c-12.933-0.346-15.684-14.14-6.717-20.002c8.966-5.862,16.043-1.896,16.043-1.896V56.937  c0,0-23.705,1.044-37.327,6.561c0,0-0.197,37.763-0.197,42.762c0,5-6.736,11.036-16.22,10.69  c-9.482-0.344-14.154-9.138-9.671-16.726C45.386,92.638,56.755,93.368,59.458,94.641" fill="#FFFFFF"/></svg>