<?xml version="1.0" encoding="iso-8859-1"?>
<!-- Generator: Adobe Illustrator 19.0.0, SVG Export Plug-In . SVG Version: 6.00 Build 0)  -->
<svg xmlns="http://www.w3.org/2000/svg" xmlns:xlink="http://www.w3.org/1999/xlink" version="1.1" id="Layer_1" x="0px" y="0px" viewBox="0 0 512.001 512.001" style="enable-background:new 0 0 512.001 512.001;" xml:space="preserve" width="512px" height="512px">
<g>
	<g>
		<path d="M470.435,230.579c-4.094-6.748-9.826-12.479-16.575-16.573c-0.027-0.017-0.054-0.032-0.081-0.049L108.937,6.938    c-0.032-0.019-0.065-0.039-0.097-0.058C85.468-6.978,55.18,0.763,41.323,24.135c-4.506,7.6-6.89,16.288-6.891,25.123    c0,0.002,0,0.003,0,0.004v413.471C34.436,489.902,56.54,512,83.709,512c0.002,0,0.006,0,0.008,0.001    c8.837-0.002,17.524-2.385,25.124-6.892c0.028-0.017,0.057-0.033,0.085-0.051l344.843-206.734    c0.031-0.019,0.062-0.037,0.093-0.056C477.091,284.177,484.527,253.812,470.435,230.579z M432.441,262.881L87.713,469.546    c-1.212,0.712-2.596,1.089-4.003,1.089c-2.851,0-4.729-1.451-5.594-2.316c-0.865-0.865-2.317-2.742-2.317-5.59V49.261h-0.001    c0.001-1.417,0.384-2.81,1.107-4.03c1.454-2.453,3.66-3.327,4.846-3.63c1.179-0.301,3.522-0.593,5.964,0.843l344.725,206.951    c1.07,0.656,1.979,1.569,2.628,2.64C437.324,255.753,436.144,260.61,432.441,262.881z" fill="#FFFFFF"/>
	</g>
</g>
<g>
</g>
<g>
</g>
<g>
</g>
<g>
</g>
<g>
</g>
<g>
</g>
<g>
</g>
<g>
</g>
<g>
</g>
<g>
</g>
<g>
</g>
<g>
</g>
<g>
</g>
<g>
</g>
<g>
</g>
</svg>
